<?xml version="1.0" encoding="UTF-8"?>
<svg width="204px" height="54px" viewBox="0 0 204 54" version="1.1" xmlns="http://www.w3.org/2000/svg" xmlns:xlink="http://www.w3.org/1999/xlink">
    <title>logo中文</title>
    <g id="页面-1" stroke="none" stroke-width="1" fill="none" fill-rule="evenodd">
        <g id="登录" transform="translate(-500.000000, -330.000000)" fill="#FFFFFF" fill-rule="nonzero">
            <g id="logo中文" transform="translate(500.000000, 330.000000)">
                <g id="编组" transform="translate(72.000000, 12.000000)">
                    <path d="M6.35260927,0.805138889 L11.0469139,0.805138889 C10.2033377,4.32536111 8.58349669,7.00341667 6.18564238,8.84016667 L8.11668874,8.84016667 L8.11668874,30.6495278 L3.45560265,30.6495278 L3.45560265,10.4478611 C2.56744371,10.7974722 1.79117881,11.0273889 1.1250596,11.13675 L0.559470199,9.98888889 C3.20034437,7.29877778 5.13139073,4.23752778 6.35260927,0.805138889 Z" id="路径"></path>
                    <path d="M11.8459073,26.8778611 L23.8649007,3.658 L11.6125033,3.658 L11.6125033,1.953 L29.6912583,1.953 L29.6912583,3.658 L17.5393907,27.0741944 C17.4065166,27.3575 17.4065166,27.6313333 17.5393907,27.8939722 C17.6722649,28.1996667 17.9502517,28.3529444 18.3716026,28.3529444 L30.8565298,28.3529444 L30.8565298,30.0915278 L13.377457,30.0915278 C12.5784636,30.0915278 12.0347285,29.6859444 11.7462517,28.8773611 C11.4796291,28.1566111 11.5128477,27.48925 11.8459073,26.8778611 Z" id="路径"></path>
                    <path d="M41.6770331,7.10158333 L41.6770331,27.2386667 C41.6770331,27.9818056 42.0651656,28.3538056 42.8423046,28.3538056 L43.6745166,28.3538056 L43.6745166,30.0923889 L40.4453245,30.0923889 C39.3797086,30.0923889 38.5361325,29.7746389 37.914596,29.1408611 C37.2930596,28.5070833 36.9827285,27.6761111 36.9827285,26.6479444 L36.9827285,8.84016667 L34.6521854,8.84016667 L34.6521854,7.10158333 L41.6770331,7.10158333 Z" id="路径"></path>
                    <polygon id="路径" points="36.9827285 0.805138889 41.6770331 0.805138889 42.8423046 5.39658333 38.1147815 5.39658333"></polygon>
                    <polygon id="路径" points="52.1312583 7.69230556 52.1312583 4.80586111 44.539947 4.80586111 44.539947 3.10086111 52.1312583 3.10086111 52.1312583 0.805138889 56.7923444 0.805138889 56.7923444 3.10086111 64.3827815 3.10086111 64.3827815 4.80586111 56.7923444 4.80586111 56.7923444 7.69230556 64.3827815 7.69230556 64.3827815 9.39730556 63.7839735 16.8751944 59.1228874 16.8751944 59.6884768 9.39730556 43.9743576 9.39730556 43.9743576 7.69230556"></polygon>
                    <path d="M50.9659868,22.0565 L43.9743576,22.0565 L43.9743576,20.3179167 L51.632106,20.3179167 C51.9651656,19.1588611 52.1312583,18.011 52.1312583,16.8743333 L52.1312583,10.5770278 L56.7923444,10.5770278 L56.7923444,16.8743333 C56.7923444,18.0764444 56.6594702,19.2243056 56.3928477,20.3179167 L64.949245,20.3179167 L64.949245,22.0565 L58.3903311,22.0565 L64.3827815,30.0923889 L59.1220132,30.0923889 L54.7939868,24.2867778 C52.4634437,28.1350833 48.9676291,30.2551389 44.306543,30.6486667 L43.9734834,29.4026389 C47.2149139,27.6537222 49.545457,25.2055833 50.9659868,22.0565 Z" id="路径"></path>
                    <polygon id="路径" points="49.2342517 10.5778889 50.9659868 14.5794722 46.3049007 14.5794722 44.539947 10.5778889"></polygon>
                    <polygon id="路径" points="49.2342517 15.1693333 50.9659868 19.1709167 46.3049007 19.1709167 44.539947 15.1693333"></polygon>
                    <path d="M75.7697483,7.10158333 L75.7697483,27.2386667 C75.7697483,27.9818056 76.1578808,28.3538056 76.9350199,28.3538056 L78.0670728,28.3538056 L78.0670728,30.0923889 L74.5380397,30.0923889 C73.4724238,30.0923889 72.6288477,29.7746389 72.0073113,29.1408611 C71.3857748,28.5070833 71.0754437,27.6761111 71.0754437,26.6479444 L71.0754437,8.84016667 L68.7449007,8.84016667 L68.7449007,7.10158333 L75.7697483,7.10158333 Z" id="路径"></path>
                    <polygon id="路径" points="71.0754437 0.805138889 75.7697483 0.805138889 76.9350199 5.39658333 72.2074967 5.39658333"></polygon>
                    <path d="M81.5628874,19.7607778 L86.2239735,19.7607778 C86.0465166,21.8601667 85.6470199,23.6745278 85.0254834,25.2047222 C84.403947,26.7349167 83.5271523,27.9921389 82.3950993,28.9763889 C81.2849007,29.9391111 80.230649,30.4953889 79.2323444,30.6486667 L78.6326623,29.5335278 C79.3433642,28.0687778 79.936053,26.5213611 80.4142252,24.8938611 C80.890649,23.2655 81.2744106,21.5536111 81.5628874,19.7607778 Z" id="路径"></path>
                    <path d="M79.7979338,1.953 L79.7979338,18.0230556 L97.8766887,18.0230556 L97.8766887,1.953 L79.7979338,1.953 Z M93.2156026,16.2844722 L84.4590199,16.2844722 L84.4590199,3.658 L93.2156026,3.658 L93.2156026,16.2844722 Z" id="形状"></path>
                    <polygon id="路径" points="91.4174305 19.7935 96.0785166 19.7935 99.0419603 30.0923889 94.3808742 30.0923889"></polygon>
                    <path d="M103.969669,1.98572222 L103.969669,30.12425 L131.969404,30.12425 L131.969404,1.98572222 L103.969669,1.98572222 Z M127.308318,28.3865278 L108.630755,28.3865278 L108.630755,3.69072222 L127.308318,3.69072222 L127.308318,28.3865278 L127.308318,28.3865278 Z" id="形状"></path>
                    <polygon id="路径" points="110.394834 22.0892222 116.820874 22.0892222 125.543364 27.2713889 119.151417 27.2713889"></polygon>
                    <polygon id="路径" points="111.560106 18.0557778 117.986146 18.0557778 124.977775 22.0892222 118.551735 22.0892222"></polygon>
                    <path d="M121.348212,13.7596944 C123.323841,12.2510278 124.721642,10.4366667 125.543364,8.31575 L125.543364,6.57716667 L116.320848,6.57716667 C116.542887,6.03036111 116.70898,5.45083333 116.82,4.83858333 L112.158914,4.83858333 C111.58196,6.78555556 110.60551,8.70841667 109.228689,10.6106111 L109.828371,11.72575 C110.516344,11.6603056 111.237536,11.4527778 111.992821,11.1023056 C112.725377,12.0865556 113.590808,12.9717778 114.589987,13.7588333 C112.748106,15.0926944 110.961298,16.1423889 109.229563,16.9070556 L109.829245,18.0549167 C112.470119,17.9016389 115.189669,17.1585 117.986146,15.8246389 C120.782623,17.1585 123.502172,17.9016389 126.143046,18.0549167 L126.742728,16.9070556 C125.055576,16.1423889 123.257404,15.0926944 121.348212,13.7596944 Z M119.267682,9.65994444 C118.87955,10.1189167 118.452079,10.5675556 117.986146,11.005 C117.497483,10.5675556 117.064768,10.1197778 116.688,9.65994444 C116.311232,9.20011111 115.966808,8.75319444 115.655603,8.31488889 L120.316689,8.31488889 C120.005483,8.75319444 119.655815,9.20097222 119.267682,9.65994444 Z" id="形状"></path>
                </g>
                <g id="编组">
                    <g id="XMLID_3134_" transform="translate(38.089552, 9.580645)">
                        <polygon id="XMLID_3161_" points="3.72325373 39.5968065 3.72325373 39.5968065 3.71892537 39.6002903"></polygon>
                        <path d="M0.263164179,4.90441935 C0.650985075,7.11667742 2.74850746,8.59383871 4.94731343,8.20364516 C7.14698507,7.81432258 8.61516418,5.70396774 8.22820896,3.49083871 C7.83952239,1.27858065 5.74286567,-0.198580645 3.54319403,0.191612903 C1.34438806,0.581806452 -0.124656716,2.69129032 0.263164179,4.90441935 Z M1.06131343,4.76245161 C0.752268657,2.99351613 1.92525373,1.30558065 3.68429851,0.994645161 C5.44161194,0.68283871 7.12014925,1.86387097 7.4300597,3.63280645 C7.73910448,5.40174194 6.5661194,7.08967742 4.80707463,7.40148387 C3.04802985,7.71329032 1.37122388,6.53225806 1.06131343,4.76245161 Z" id="XMLID_3217_"></path>
                        <ellipse id="XMLID_3218_" cx="5.65629851" cy="4.29996774" rx="1.102" ry="1.10874194"></ellipse>
                    </g>
                    <g id="路径">
                        <path d="M0.638,25.433129 C0.51161194,26.4033871 0.426776119,27.3832258 0.399940299,28.3752581 C0.454477612,28.1087419 0.509880597,27.8422258 0.565283582,27.5765806 C0.601641791,27.3849677 0.654447761,27.1968387 0.702059701,27.0087097 C0.745343284,26.838871 0.788626866,26.6699032 0.831910448,26.5018065 L0.638,25.433129 Z"></path>
                        <path d="M57.2312836,24.2059355 C54.4853731,8.53635484 39.6330448,-1.92832258 24.0570149,0.835258065 C11.5186269,3.05970968 2.34077612,13.1794839 0.668298507,25.2162581 L1.48722388,24.3870968 L1.21540299,22.9465161 L2.41176119,22.1147419 C2.41176119,22.113871 2.41176119,22.113871 2.41262687,22.113871 L2.1001194,20.7429677 L3.43931343,20.088871 C3.44104478,20.0853871 3.44277612,20.0819032 3.44450746,20.0784194 L3.11122388,18.3756774 L4.72223881,18.0238065 C4.72570149,18.0194516 4.72829851,18.0150968 4.73089552,18.0116129 L4.23053731,16.0092581 L6.14540299,16.0832903 L5.56280597,13.931129 L7.70707463,14.2681935 L7.3201194,12.0629032 L9.46265672,12.6272903 L9.14668657,10.3627742 L11.2822985,11.1579677 L11.1671642,8.82812903 L13.2343881,9.89506452 L13.2716119,7.50251613 L15.2470746,8.69225806 L15.428,6.40770968 L17.4398209,7.803 L17.927194,5.4513871 L19.6767164,7.02435484 C19.6879701,7.02174194 19.6974925,7.0173871 19.7078806,7.01477419 L20.4359104,4.6736129 L22.0252836,6.40945161 C22.0417313,6.40596774 22.0581791,6.4016129 22.0746269,6.39812903 L22.854597,4.14841935 L24.4431045,6.00270968 C24.4465672,6.00270968 24.4482985,6.00270968 24.4517612,6.00183871 L25.4801791,3.81919355 L26.8436119,5.80674194 C26.8505373,5.80674194 26.8583284,5.80674194 26.8652537,5.80587097 L28.0477612,3.66590323 L29.3237612,5.81022581 L29.2527761,5.81109677 C29.2761493,5.81283871 29.3012537,5.81458065 29.3254925,5.81632258 C29.3687761,6.77177419 29.7920896,7.84219355 30.5954328,9.01625806 C33.4547463,13.1916774 32.3960299,16.7748387 32.3847761,16.8105484 C32.3241791,17.0056452 32.4315224,17.2129355 32.6245672,17.2730323 C32.6825672,17.2913226 32.7422985,17.2948065 32.7977015,17.2852258 C32.9284179,17.2617097 33.0418209,17.1685161 33.0842388,17.0326452 C33.1344478,16.8732581 34.272806,13.0845484 31.1996716,8.59645161 C30.2032836,7.14106452 29.8535522,5.90690323 30.16,4.92619355 C30.2197313,4.73545161 30.3019701,4.5656129 30.3954627,4.41580645 C30.6785373,4.22593548 31.2403582,3.72512903 31.8411343,3.91064516 C33.5040896,4.4253871 35.3548955,4.32958065 36.5521194,5.25890323 C37.6601791,6.42077419 38.4920896,7.76816129 40.0165373,8.09390323 C38.9534925,8.32645161 38.0583881,8.95616129 37.8947761,9.08070968 C36.7538209,9.94732258 36.1166866,11.258129 36.0024179,12.9756774 C35.9894328,13.1638065 36.1088955,13.3414839 36.2915522,13.3798065 C36.3400299,13.3893871 36.3867761,13.3893871 36.431791,13.3815484 C36.5945373,13.3528065 36.7226567,13.2151935 36.7339104,13.041 C36.83,11.5403226 37.3684478,10.4071935 38.335403,9.67296774 C38.3864776,9.63377419 38.4375522,9.59632258 38.4903582,9.5606129 C38.9777313,9.22703226 39.5551343,9.06416129 40.143791,9.05022581 C41.4977015,9.018 42.806597,8.43793548 44.1778209,8.98403226 C46.0667164,9.73393548 47.3513731,12.9582581 49.0982985,15.0599032 C49.2584478,15.2340968 49.4073433,15.4074194 49.5562388,15.5729032 C50.7751045,16.8244839 51.7853433,18.2981613 52.3869851,19.2527419 C52.6830448,19.7213226 52.7739403,20.2796129 52.664,20.7969677 C50.8521493,20.1925161 48.7580896,20.465129 46.7306866,20.8248387 L46.6934627,20.8318065 C46.278806,20.9058387 45.7524776,21.0408387 45.1447761,21.1984839 C43.0766866,21.7323871 39.9533433,22.5406452 38.8219104,21.3543871 C38.6773433,21.2037097 38.4384179,21.1793226 38.272209,21.3047419 C38.0713731,21.4571613 38.0514627,21.7463226 38.219403,21.924 C39.6823881,23.4682258 42.9580896,22.6225161 45.3490746,22.004129 C45.941194,21.8508387 46.4510746,21.7193226 46.8371642,21.6505161 L46.8735224,21.6444194 C48.7580896,21.3090968 50.697194,21.0504194 52.3229254,21.5625484 C52.2969552,21.5982581 52.2709851,21.6330968 52.2424179,21.6679355 C50.5941791,23.6476452 46.8319701,24.5795806 43.5389552,25.0168065 C35.672597,28.7314839 33.4253134,25.1309032 32.7907761,23.0405806 C32.8816716,25.6613226 30.2024179,27.081871 30.2024179,27.081871 C29.1281194,27.6732581 28.2070448,28.3177742 27.4184179,28.998 L25.5078806,28.0913226 L28.0884478,25.9557097 C28.2451343,25.8259355 28.2676418,25.5925161 28.1386567,25.434871 C28.0105373,25.2772258 27.7785373,25.2545806 27.6218507,25.3843548 L24.5928657,27.891 C24.4967761,27.972 24.4465672,28.0956774 24.4630149,28.2219677 C24.478597,28.3482581 24.5556418,28.457129 24.6699104,28.511129 L26.8280299,29.5353871 L29.1939104,30.4429355 L32.2973433,31.6344194 C32.2670448,31.6544516 32.2367463,31.6762258 32.2064478,31.698 C32.2012537,31.7023548 32.1960597,31.7058387 32.1908657,31.7101935 L31.8168955,32.0063226 L31.6290448,32.156129 C31.6186567,32.1639677 31.6108657,32.1726774 31.6013433,32.1796452 L31.4256119,32.3407742 L31.0767463,32.6630323 C31.0706866,32.6682581 31.0654925,32.6726129 31.0602985,32.6787097 C30.9754627,32.7631935 30.8975522,32.8476774 30.8205075,32.9304194 C30.790209,32.9635161 30.7590448,32.9966129 30.7287463,33.0288387 C30.5348358,33.2256774 30.3712239,33.4338387 30.2119403,33.6350323 C30.1721194,33.6864194 30.1314328,33.7369355 30.0907463,33.7883226 L30.0162985,33.8832581 C30.0102388,33.8893548 30.0059104,33.8963226 30.0007164,33.9015484 C29.9825373,33.9268065 29.9643582,33.9546774 29.9461791,33.9799355 L29.7929552,34.209 C29.7929552,34.209 29.7479403,34.2760645 29.698597,34.3518387 C28.8537015,34.1236452 27.7560299,33.8275161 26.6401791,33.5279032 C24.2292836,32.8790323 21.7378806,32.2092581 21.5491642,32.1648387 C18.9495522,31.5281613 17.5021493,30.644129 17.4320299,29.6216129 C17.2060896,26.3737742 23.898597,22.625129 23.9661194,22.5876774 C24.1435821,22.4892581 24.2085075,22.2645484 24.1106866,22.086 C24.0128657,21.9074516 23.7903881,21.842129 23.6120597,21.9405484 C23.318597,22.1034194 16.4417015,25.9591935 16.6996716,29.673 C16.814806,31.3252258 18.9919701,32.5306452 23.1748955,33.2552903 C23.4813433,33.3084194 23.787791,33.3563226 24.0925075,33.4007419 C23.6302388,34.4310968 23.3411045,35.4597097 23.1705672,36.4430323 C21.9499701,43.5022258 25.4723881,49.8080323 32.3986269,51.3592258 C37.3294925,52.4636129 41.641403,49.3046129 41.8050149,49.1818065 C42.0058507,49.0067419 42.2032239,48.8281935 42.392806,48.6426774 C43.2299104,47.844871 43.9388955,46.9547419 44.5197612,46.0062581 C44.8028358,45.5298387 45.0512836,45.036 45.2651045,44.5299677 L45.3412836,44.3383548 L45.3802388,44.2434194 L45.3992836,44.1955161 C45.4200597,44.1293226 45.3914925,44.2329677 45.4018806,44.199 L45.5594328,43.7312903 L45.6607164,43.389 C45.6685075,43.361129 45.6780299,43.3367419 45.6849552,43.3045161 L45.706597,43.2087097 L45.7516119,43.0170968 C45.9801493,41.9919677 46.0260299,40.9206774 45.8823284,39.878129 C45.7360299,38.8364516 45.406209,37.827871 44.9145075,36.9238065 C44.4262687,36.017129 43.7614328,35.2315161 42.9849254,34.6061613 C42.2101493,33.9738387 41.3055224,33.534 40.3463582,33.2587742 C40.2251642,33.2282903 40.1039701,33.1986774 39.9827761,33.1681935 L39.9368955,33.156871 C39.8702388,33.1446774 39.9784478,33.1594839 39.9464179,33.1542581 L39.8364776,33.1359677 L39.616597,33.0976452 C39.2902388,33.0349355 39.1145075,33.0358065 38.8877015,33.0061935 C38.4063881,32.9835484 37.9017015,32.9774516 37.412597,33.0462581 C36.4257313,33.1533871 35.4682985,33.4625806 34.5991642,33.8971935 C34.4866269,33.9459677 34.3853433,34.0104194 34.2797313,34.0696452 C34.1758507,34.1306129 34.0685075,34.1880968 33.9663582,34.2508065 C33.866806,34.3187419 33.7672537,34.3858065 33.6677015,34.452 L33.5179403,34.5521613 L33.3785672,34.6627742 C33.2850746,34.7359355 33.1915821,34.8099677 33.0980896,34.883129 C33.0080597,34.9597742 32.9249552,35.0425161 32.8366567,35.1209032 C32.6557313,35.2733226 32.5077015,35.4527419 32.3466866,35.6208387 L32.2869552,35.6844194 C32.2687761,35.7061935 32.2514627,35.7305806 32.2332836,35.7523548 L32.126806,35.8882258 C32.0610149,35.9727097 31.9952239,36.0545806 31.9294328,36.1381935 L31.8168955,36.3062903 C31.7796716,36.3611613 31.7381194,36.423871 31.7190746,36.4595806 L31.6446269,36.585871 L31.6065373,36.6485806 L31.5684478,36.7217419 C31.3624179,37.1110645 31.204,37.5273871 31.0949254,37.9585161 C30.8767761,38.8190323 30.8568657,39.7318065 31.0048955,40.6001613 C31.1529254,41.4702581 31.4688955,42.2968065 31.9173134,43.0127419 C32.3648657,43.7278065 32.9457313,44.3305161 33.6079701,44.7738387 C33.6919403,44.8278387 33.7750448,44.8800968 33.8598806,44.9332258 C33.9464478,44.982 34.0321493,45.0281613 34.1187164,45.0769355 C34.1239104,45.0795484 34.154209,45.0952258 34.1368955,45.0882581 L34.1741194,45.1065484 L34.2494328,45.1422581 L34.3247463,45.1779677 L34.3853433,45.2040968 L34.507403,45.2563548 L34.6424478,45.3077419 C35.0042985,45.440129 35.3869254,45.5280968 35.7704179,45.5864516 C36.5382687,45.6970645 37.3121791,45.6796452 38.0315522,45.5437742 C38.751791,45.4113871 39.4200896,45.1570645 39.9689254,44.7877742 C40.2433433,44.604 40.4874627,44.3897419 40.6865672,44.1502258 L40.7610149,44.0596452 L40.779194,44.037 C40.7939104,44.0178387 40.7800597,44.0387419 40.7887164,44.0256774 L40.8259403,43.9716774 C40.8761493,43.8993871 40.9246269,43.8279677 40.9739701,43.7565484 C41.0163881,43.6894839 41.0492836,43.6267742 41.0882388,43.5614516 C41.1064179,43.5292258 41.1263284,43.4987419 41.1427761,43.4647742 L41.1921194,43.3602581 C41.3314925,43.0841613 41.4241194,42.7932581 41.4890448,42.5032258 C41.5574328,42.2131935 41.5764776,41.9205484 41.5790746,41.6357419 C41.580806,41.3500645 41.5392537,41.0730968 41.4881791,40.8057097 C41.4518209,40.6750645 41.4275821,40.5409355 41.3808358,40.418129 C41.359194,40.3554194 41.3392836,40.2918387 41.3167761,40.23 C41.2916716,40.1699032 41.2657015,40.1098065 41.2414627,40.0514516 L41.2033731,39.9617419 L41.1600896,39.8763871 C41.1315224,39.8197742 41.1029552,39.7631613 41.0735224,39.7082903 C41.0406269,39.6542903 41.008597,39.6020323 40.9774328,39.5489032 C40.945403,39.4957742 40.9142388,39.4435161 40.8770149,39.3956129 C40.8415224,39.3459677 40.8068955,39.2980645 40.7722687,39.2492903 C40.7376418,39.1996452 40.6960896,39.1578387 40.6588657,39.1125484 C40.6199104,39.068129 40.5852836,39.0219677 40.544597,38.9810323 C40.5039104,38.9400968 40.4632239,38.9000323 40.423403,38.8599677 C40.0996418,38.5438065 39.7369254,38.3156129 39.3785373,38.1727742 C39.0192836,38.0255806 38.6652239,37.9672258 38.3475224,37.9515484 C38.1882388,37.9367419 38.0384776,37.9532903 37.8965075,37.9576452 C37.7562687,37.9715806 37.6255522,37.9924839 37.5034925,38.0116452 C37.3831642,38.0403871 37.2723582,38.0665161 37.1719403,38.0900323 C37.0732537,38.1222581 36.9840896,38.151871 36.9035821,38.178871 C36.8646269,38.1928065 36.8265373,38.2032581 36.7919104,38.2163226 C36.7581493,38.231129 36.7261194,38.2441935 36.6975522,38.2572581 C36.6386866,38.2816452 36.5893433,38.3034194 36.5503881,38.3199677 C36.4716119,38.3530645 36.4309254,38.3704839 36.4309254,38.3704839 C36.4309254,38.3704839 36.4698806,38.3513226 36.5460597,38.3112581 C36.5841493,38.2920968 36.6317612,38.2668387 36.6880299,38.2372258 C36.716597,38.2224194 36.7468955,38.2067419 36.779791,38.1893226 C36.8135522,38.1736452 36.8507761,38.1597097 36.8897313,38.1422903 C36.9676418,38.1091935 37.0550746,38.0734839 37.1528955,38.0334194 C37.2533134,38.0011935 37.3632537,37.9663548 37.4835821,37.9280323 C37.6056418,37.9001613 37.7380896,37.8679355 37.881791,37.8418065 C38.0272239,37.8252581 38.1821791,37.7973871 38.3492537,37.799129 C38.680806,37.7895484 39.0599701,37.8226452 39.4564478,37.9506774 C39.853791,38.0752258 40.2649851,38.2912258 40.6450149,38.61 C40.6926269,38.6509355 40.7393731,38.691871 40.7878507,38.7328065 C40.8354627,38.7746129 40.8778806,38.8225161 40.9237612,38.8669355 C40.9679104,38.9139677 41.0163881,38.9575161 41.058806,39.0080323 C41.1012239,39.0585484 41.1436418,39.1090645 41.1860597,39.1604516 C41.2310746,39.2100968 41.2700299,39.2649677 41.3098507,39.3207097 C41.3496716,39.3764516 41.3894925,39.4321935 41.4301791,39.4879355 C41.4665373,39.5471613 41.5028955,39.6072581 41.5392537,39.6673548 L41.5946567,39.7579355 L41.644,39.852 C41.6768955,39.9164516 41.709791,39.9800323 41.7426866,40.0453548 C41.7729851,40.1124194 41.7998209,40.1803548 41.8301194,40.2482903 C41.8924478,40.3832903 41.931403,40.5296129 41.984209,40.6741935 C42.0655821,40.9694516 42.1348358,41.2803871 42.158209,41.607 C42.1815821,41.9327419 42.1833134,42.2724194 42.1305075,42.6164516 C42.0802985,42.9596129 41.9980597,43.3114839 41.8595522,43.6511613 L41.8119403,43.7809355 C41.7946269,43.8244839 41.7712537,43.8680323 41.7513433,43.9107097 C41.709791,43.9969355 41.6665075,44.0892581 41.6232239,44.171129 C41.5799403,44.2460323 41.535791,44.3209355 41.4925075,44.3967097 L41.4596119,44.4524516 C41.4561493,44.4594194 41.4310448,44.4977419 41.4319104,44.496 L41.4111343,44.5256129 L41.3271642,44.6466774 C41.0986269,44.9671935 40.8164179,45.2563548 40.4987164,45.5071935 C39.8624478,46.0106129 39.0954627,46.3659677 38.2730746,46.5837097 C37.4489552,46.8031935 36.5642388,46.8946452 35.6457612,46.8336774 C35.1878209,46.7997097 34.7194925,46.7300323 34.2468358,46.5976452 L34.0693731,46.5462581 L33.8815224,46.4835484 L33.7897612,46.4513226 L33.7118507,46.4208387 L33.6339403,46.3903548 L33.5949851,46.3764194 L33.5387164,46.3511613 C33.4261791,46.2997742 33.3127761,46.2492581 33.1993731,46.196129 C33.0877015,46.1403871 32.9777612,46.0785484 32.8660896,46.0193226 C31.9874328,45.5263548 31.1936119,44.82 30.5616716,43.9603548 C29.928,43.1033226 29.4510149,42.0956129 29.1757313,41.0025484 C28.9030448,39.9094839 28.831194,38.7240968 29.0363582,37.529129 C29.1385075,36.9316452 29.3116418,36.3341613 29.5635522,35.7567097 L29.6102985,35.6478387 L29.6657015,35.532871 L29.7808358,35.3038065 C29.8223881,35.2193226 29.8526866,35.1679355 29.8855821,35.1078387 L29.9842687,34.9319032 C30.0015821,34.9040323 29.9816716,34.9319032 30.0284179,34.857871 L30.0604478,34.8090968 L30.1245075,34.7124194 L30.2534925,34.5173226 L30.384209,34.3222258 C30.4058507,34.290871 30.4274925,34.2577742 30.45,34.2264194 L30.5227164,34.1349677 C30.7174925,33.8919677 30.9044776,33.6376452 31.1260896,33.4146774 C31.2334328,33.2997097 31.3390448,33.1812581 31.4507164,33.0697742 C31.5658507,32.9635161 31.6827164,32.8563871 31.7978507,32.7492581 L31.9735821,32.588129 L32.1588358,32.4400645 C32.2843582,32.3425161 32.4081493,32.2432258 32.5336716,32.1439355 C32.6609254,32.0507419 32.7951045,31.9636452 32.9258209,31.8721935 C33.0582687,31.7824839 33.1889851,31.6892903 33.3292239,31.6117742 C34.4251642,30.9515806 35.6474925,30.4533871 36.9572537,30.2034194 C37.12,30.1729355 37.2836119,30.1372258 37.4498209,30.1128387 C37.6168955,30.0928065 37.7839701,30.0719032 37.9519104,30.051871 C38.1181194,30.0274839 38.2886567,30.0213871 38.4583284,30.0118065 L38.7154328,29.9996129 C38.802,29.997 38.8807761,29.9874194 38.9768657,29.9917742 C39.3378507,29.9996129 39.7542388,30.0091935 40.0156716,30.0414194 L40.2372836,30.0614516 L40.3489552,30.0719032 C40.3532836,30.0710323 40.4987164,30.0936774 40.4684179,30.0901935 L40.5316119,30.1006452 C40.7021493,30.1293871 40.8744179,30.158129 41.0458209,30.186871 C42.4118507,30.4594839 43.7778806,30.9977419 44.9837612,31.8286452 C46.1913731,32.6517097 47.2518209,33.7308387 48.0629552,34.9859032 C48.8784179,36.2383548 49.466209,37.6519355 49.7942985,39.1421613 C50.1206567,40.634129 50.1821194,42.2044839 49.9605075,43.7635161 L49.9146269,44.0552903 L49.8921194,44.2016129 C49.8843284,44.2512581 49.872209,44.3052581 49.8618209,44.3575161 L49.7951642,44.6719355 L49.7605373,44.8304516 C49.7492836,44.8818387 49.7371642,44.9401935 49.7276418,44.9741613 L49.6055821,45.4531935 C49.5423881,45.6535161 49.479194,45.8564516 49.4168657,46.0585161 C49.1744776,46.791871 48.8775522,47.5112903 48.5330149,48.2054516 C47.8318209,49.5902903 46.9471045,50.8793226 45.9221493,52.0246452 C45.4841194,52.5193548 45.0218507,52.9888065 44.541403,53.4364839 C53.9382687,47.3405806 59.2941791,35.9796774 57.2312836,24.2059355 Z"></path>
                    </g>
                </g>
            </g>
        </g>
    </g>
</svg>